<?xml version="1.0" encoding="utf-8"?>
<!-- Svg Vector Icons : http://www.onlinewebfonts.com/icon -->
<!DOCTYPE svg PUBLIC "-//W3C//DTD SVG 1.1//EN" "http://www.w3.org/Graphics/SVG/1.1/DTD/svg11.dtd">
<svg version="1.1" xmlns="http://www.w3.org/2000/svg" xmlns:xlink="http://www.w3.org/1999/xlink" x="0px" y="0px" viewBox="0 0 1000 1000" enable-background="new 0 0 1000 1000" xml:space="preserve">
<metadata> Svg Vector Icons : http://www.onlinewebfonts.com/icon </metadata>
<g><g transform="translate(0.000000,511.000000) scale(0.100000,-0.100000)"><path d="M4913.7,4844c-30.7-19.2-1106.3-1087.1-2389-2371.7C-88.6-146.9,103.1,66,103.1-229.3c0-126.6,7.7-172.6,49.9-262.7c151.5-324,542.6-462.1,862.8-301c57.5,26.8,686.4,642.3,2034.3,1988.3L5000,3145.2l1951.8-1949.9C8318.9-169.9,8926.7-766.2,8984.2-794.9c320.2-159.2,713.3-19.2,862.8,302.9c42.2,90.1,49.9,136.1,49.9,262.7c0,295.3,191.7,80.5-2431.2,2709.2C6177.3,3770.3,5101.6,4838.2,5072.9,4853.5C5005.8,4888.1,4982.7,4888.1,4913.7,4844z"/><path d="M3086.5,733.2l-1902-1902v-1691.1V-4551l46-53.7l46-53.7H5000h3723.5l46,53.7l46,53.7v1691.1v1691.1L6911.6,735.1c-1045,1045-1905.8,1902-1911.6,1902S4133.4,1780.1,3086.5,733.2z M6514.7,33.4c99.7-7.7,193.6-21.1,207.1-30.7c32.6-19.2,21.1-92.1-57.5-337.5c-113.1-350.9-270.3-592.5-414.1-632.7c-86.3-23-199.4,1.9-349,76.7c-63.3,32.6-118.9,57.5-124.6,57.5c-19.2,0-216.7-316.4-322.1-517.7c-99.7-189.8-264.6-582.9-291.4-692.2l-13.4-51.8l161.1,63.3C5464-1970.3,5717.1-1907,5811-1907c34.5,0,61.4,23,101.6,88.2c99.7,159.1,276.1,220.5,437.1,153.4c36.4-15.4,141.9-78.6,235.8-141.9c95.9-63.3,203.2-128.4,243.5-145.7c128.4-53.7,117-134.2-38.3-291.4c-122.7-120.8-293.4-237.7-421.8-287.6c-72.9-26.8-97.8-28.8-163-9.6c-134.2,40.3-316.4,241.6-352.8,391.1c-7.7,28.8-17.2,51.8-21.1,51.8c-5.8,0-63.3-24.9-130.4-55.6c-352.8-159.2-569.5-400.7-653.8-724.8c-30.7-117-34.5-379.6-11.5-655.7c19.2-237.8,28.8-232-345.1-232c-174.5,0-324,7.7-345.1,19.2c-26.8,15.3-36.4,40.3-36.4,95.9c0,95.9,44.1,391.1,95.9,640.4c30.7,151.4,34.5,193.6,15.3,207.1c-36.4,21.1-40.3,19.2-82.4-47.9c-82.4-130.4-255-184.1-402.6-128.4c-26.8,9.6-145.7,117-264.6,237.8c-224.3,228.1-320.2,291.4-464,312.5c-97.8,13.4-141.9,49.8-113.1,95.9c9.6,15.4,86.3,51.8,170.6,80.5c84.4,28.8,235.8,90.1,333.6,136.1c287.6,132.3,511.9,130.4,665.3-5.8c97.8-84.4,145.7-191.7,159.1-358.5c7.7-107.4,19.2-145.7,40.3-149.6c23-3.8,47.9,53.7,103.5,220.5c84.4,258.8,279.9,709.4,377.7,874.3c67.1,111.2,67.1,113.1,49.9,249.3c-9.6,76.7-19.2,140-23,143.8c-1.9,1.9-47.9-5.7-101.6-17.2c-249.3-57.5-425.7,117-490.8,483.2c-57.5,327.9-72.9,454.4-61.4,473.6c32.6,51.8,425.6,42.2,627-15.3c318.3-90.1,460.2-496.6,266.5-763.1c-42.2-59.4-51.8-86.3-40.3-136.1l11.5-61.4l136.2,159.1c74.8,88.2,168.7,195.6,207.1,237.8l69,80.5L5556-655c-80.5,101.6-138,243.5-138,347.1c-1.9,163,74.8,270.4,245.4,339.4C5747.8,64,5788,67.9,6045,58.3C6204.1,52.5,6415,41,6514.7,33.4z"/></g></g>
</svg>