<?xml version="1.0" encoding="utf-8"?>
<!-- Svg Vector Icons : http://www.onlinewebfonts.com/icon -->
<!DOCTYPE svg PUBLIC "-//W3C//DTD SVG 1.1//EN" "http://www.w3.org/Graphics/SVG/1.1/DTD/svg11.dtd">
<svg version="1.1" xmlns="http://www.w3.org/2000/svg" xmlns:xlink="http://www.w3.org/1999/xlink" x="0px" y="0px" viewBox="0 0 1000 1000" enable-background="new 0 0 1000 1000" xml:space="preserve">
<metadata> Svg Vector Icons : http://www.onlinewebfonts.com/icon </metadata>
<g><g transform="translate(0.000000,502.000000) scale(0.100000,-0.100000)"><path d="M2916.6,4887.9c-145.1-47.1-264.7-117.6-362.7-217.6c-94.1-92.2-2321.3-3448.6-2395.8-3607.5c-39.2-88.2-51-145.1-56.9-307.8C89.5,457,160.1,274.7,358.1,90.4c54.9-52.9,972.4-678.3,2039-1390c1770.4-1182.2,1942.9-1294,2015.5-1294c66.7,0,90.2,11.8,137.2,64.7c31.4,35.3,56.9,84.3,56.9,107.8c0,25.5,13.7,90.2,29.4,143.1c74.5,252.9,388.2,445.1,603.9,370.5c194.1-68.6,298-13.7,354.9,188.2c27.4,98,52.9,143.1,125.5,215.7c154.9,154.9,313.7,170.6,570.5,58.8c184.3-82.3,268.6-52.9,358.8,125.5c74.5,145.1,151,221.5,286.2,288.2c123.5,60.8,141.2,64.7,362.7,66.6c229.4,2,233.3,2,286.3,58.8c98,102,978.3,1454.7,1021.5,1570.4c115.7,303.9,49,645-174.5,894c-43.1,49-994,694.1-2474.2,1682.2C3334.2,4989.9,3438.1,4927.1,3157.8,4923.2C3087.2,4923.2,2977.4,4907.5,2916.6,4887.9z M3359.7,4478.1c109.8-54.9,4746.5-3156.5,4789.7-3201.6c103.9-113.7,137.2-329.4,74.5-480.3C8206.2,755,8002.4,431.5,7769,78.6l-425.5-643.1h-147c-239.2,0-415.6-62.8-623.5-217.6c-54.9-41.2-129.4-113.7-162.7-160.8l-62.7-86.3l-98,27.5c-152.9,45.1-425.4,25.5-570.5-39.2c-133.3-60.8-323.5-235.3-388.2-354.9l-45.1-84.3l-154.9-11.8c-125.5-7.8-182.3-23.5-317.6-88.2c-184.3-90.2-382.3-268.6-452.9-411.7l-41.2-82.3l-1792,1196C1452.1-186.1,660,355.1,612.9,404.1c-123.5,129.4-160.8,331.3-86.3,492.1c31.4,72.5,2182.1,3334.9,2268.4,3444.7C2926.4,4507.6,3181.3,4570.3,3359.7,4478.1z"/><path d="M3879.3,2623.4c-298-86.3-476.4-280.4-558.8-605.8c-17.6-66.7-33.3-123.5-37.3-127.4c-2-2-54.9-17.7-117.6-33.3c-362.7-96.1-574.4-337.2-594.1-678.4c-17.7-317.6,119.6-572.5,413.7-766.6l96.1-60.8l-11.8-100c-27.4-233.3,72.5-505.8,243.1-666.6c54.9-51,166.7-125.5,249-164.7c133.3-62.8,168.6-70.6,307.8-70.6c139.2-2,176.5,5.9,290.2,60.8c72.5,33.3,176.5,103.9,231.3,154.9l98,92.2l92.2-41.2c333.3-141.2,633.3-82.3,876.4,172.5c56.8,60.8,127.4,154.9,154.9,209.8c98,192.1,102,447,13.7,648.9c-21.6,49-39.2,96.1-39.2,107.8c0,9.8,31.4,52.9,70.6,96.1c92.1,101.9,178.4,288.2,194.1,415.6c41.2,321.5-180.4,723.4-474.5,868.5c-105.9,51-129.4,54.9-341.1,54.9l-229.4-2l-35.3,68.6c-60.8,113.7-225.5,264.7-350.9,325.5C4281.2,2647,4028.3,2666.6,3879.3,2623.4z M4273.3,2209.8c88.2-45.1,164.7-151,225.5-309.8c39.2-105.9,127.4-190.2,196.1-190.2c27.4,0,94.1,19.6,151,41.2c131.4,52.9,305.8,56.9,382.3,7.8c74.5-47.1,117.6-100,174.5-215.7c94.1-196.1,51-345.1-154.9-527.4c-149-129.4-172.5-194.1-113.7-303.9c170.5-313.7,190.2-394.1,127.4-517.6C5220.3,113.9,5122.3,8,5053.6-27.2C4936-88,4836-64.5,4520.4,104.1c-94.1,49-178.4,27.4-252.9-64.7c-137.2-172.5-194.1-229.4-256.8-258.8c-239.2-113.7-539.2,100-541.1,384.3c0,49,13.7,145.1,31.4,211.7c27.4,111.8,27.4,123.5-5.9,182.3c-25.5,43.1-80.4,84.3-180.4,133.3c-149,74.5-260.8,168.6-305.8,252.9c-64.7,127.4-49,317.6,33.3,405.8c56.9,60.8,207.8,121.6,341.1,135.3c252.9,25.5,290.2,58.8,307.8,282.3c13.7,164.7,41.2,258.8,96.1,339.2C3879.3,2237.2,4118.5,2288.2,4273.3,2209.8z"/><path d="M4067.5,1378.5c-98-43.1-213.7-168.6-245.1-266.6c-62.7-188.2,27.4-419.6,203.9-529.4c170.6-103.9,421.5-72.5,554.8,72.5c162.7,174.5,160.8,464.6-5.9,631.3C4449.8,1411.8,4228.3,1453,4067.5,1378.5z"/><path d="M6841.7-1872.1c-68.6-25.5-98-72.5-98-154.9c0-172.5,151-415.6,411.7-660.7c419.6-396,854.8-415.6,721.5-31.4c-98,280.4-490.1,686.2-782.3,807.8C7010.3-1876.1,6882.9-1856.5,6841.7-1872.1z"/><path d="M8763.1-2419.2c-152.9-129.4-258.8-464.6-260.8-831.3c-3.9-262.7,15.7-362.7,90.2-472.5c56.9-84.3,154.9-100,235.3-37.3c64.7,51,178.4,280.4,223.5,450.9c43.1,160.8,49,637.2,9.8,750.9C8996.4-2376,8880.7-2321.1,8763.1-2419.2z"/><path d="M6808.4-3377.9c-276.4-119.6,43.1-499.9,572.5-678.3c190.2-64.7,488.2-66.7,572.5-5.9c213.7,158.8-151,531.3-660.7,672.5C7122.1-3342.6,6900.5-3336.7,6808.4-3377.9z"/><path d="M8794.4-4320.9c-221.5-49-403.9-164.7-403.9-256.8c0-107.8,152.9-217.6,384.3-272.5c184.3-45.1,580.3-45.1,758.8-2c521.5,129.4,478.4,427.4-78.4,535.2C9270.8-4281.7,8970.9-4283.7,8794.4-4320.9z"/></g></g>
</svg>